<?xml version='1.0' encoding='iso-8859-1'?>
<!DOCTYPE svg PUBLIC '-//W3C//DTD SVG 1.1//EN' 'http://www.w3.org/Graphics/SVG/1.1/DTD/svg11.dtd'>
<svg version="1.1" xmlns="http://www.w3.org/2000/svg" viewBox="0 0 512 512" xmlns:xlink="http://www.w3.org/1999/xlink" enable-background="new 0 0 512 512">
  <g>
    <path d="M240,128h-88.982C146.515,167.431,144,208.895,144,250.672c0,45.549,3.069,90.689,8.588,133.328H240V128z"/>
    <path d="M112,250.672c0-42.161,2.372-83.396,6.693-122.672H32.973C21.909,167.15,16,208.902,16,251.609   C16,296.866,23.099,341.94,36.35,384h84.02C115,341.154,112,296.074,112,250.672z"/>
    <path d="M240,416h-82.692c5.771,34.835,13.315,67.249,22.466,96H240V416z"/>
    <path d="m475.65,384c13.251-42.06 20.35-87.134 20.35-132.391 0-42.707-5.909-84.459-16.973-123.609h-85.72c4.321,39.275 6.692,80.511 6.692,122.672 0,45.402-3,90.482-8.37,133.328h84.021z"/>
    <path d="M272,416v96h60.227c9.15-28.751,16.694-61.165,22.466-96H272z"/>
    <path d="M360.982,128H272v256h87.412c5.519-42.64,8.588-87.779,8.588-133.328C368,208.895,365.485,167.431,360.982,128z"/>
    <path d="m124.912,416h-77.059c12.301,30.256 27.938,58.397 46.553,83.203 6.039,8.055 15.524,12.797 25.594,12.797h26.27c-8.694-29.156-15.853-61.529-21.358-96z"/>
    <path d="m387.088,416c-5.505,34.471-12.664,66.844-21.358,96h26.27c10.07,0 19.555-4.742 25.594-12.797 18.615-24.806 34.252-52.947 46.553-83.203h-77.059z"/>
    <path d="M389.281,96h79.383c-11.017-29.637-25.177-57.343-42.336-82.188C420.359,5.164,410.516,0,400,0h-30.311   C377.789,29.396,384.358,61.668,389.281,96z"/>
    <path d="M122.719,96c4.923-34.332,11.492-66.604,19.592-96H112c-10.516,0-20.359,5.164-26.328,13.813   C68.513,38.657,54.352,66.363,43.336,96H122.719z"/>
    <path d="M155.206,96H240V0h-64.39C167.228,28.747,160.37,61.185,155.206,96z"/>
    <path d="M356.795,96c-5.164-34.815-12.023-67.253-20.405-96H272v96H356.795z"/>
  </g>
</svg>
